# xmcd CD database file
#
# Track frame offsets:
#	150
#	21167
#	42258
#	61119
#	79087
#	108254
#	124443
#	143155
#	163822
#	179518
#	200110
#	214949
#	231735
#	251846
#
# Disc length: 3627 seconds
#
# Revision: 0
# Processed by: cddbd v1.5.2PL0 Copyright (c) Steve Scherf et al.
# Submitted via: CDex 1.51
#
DISCID=d70e290e
DTITLE=Tim "Breeze" Laughlin - New Orleans feeling
DYEAR=1900
DGENRE=Jazz
TTITLE0=Dumaine Street Breakdown
TTITLE1=C Jam Blues
TTITLE2=Minnie the Moocher
TTITLE3=Mama Inez
TTITLE4=When My Breamboat Comes Home
TTITLE5=Egyptian Fantasy
TTITLE6=Some of These Days
TTITLE7=Asleep in the Deep
TTITLE8=You Feets To Big
TTITLE9=Restless Heart
TTITLE10=Begin The Beguine
TTITLE11=Just a Closer Walk With Thee
TTITLE12=Runnin' Wild
TTITLE13=Do You Know What it Means to Miss New Orleans
EXTD=
EXTT0=
EXTT1=
EXTT2=
EXTT3=
EXTT4=
EXTT5=
EXTT6=
EXTT7=
EXTT8=
EXTT9=
EXTT10=
EXTT11=
EXTT12=
EXTT13=
PLAYORDER=
